<svg xmlns="http://www.w3.org/2000/svg" xmlns:xlink="http://www.w3.org/1999/xlink" width="500" zoomAndPan="magnify" viewBox="0 0 375 374.999991" height="500" preserveAspectRatio="xMidYMid meet" version="1.0"><path fill="#008cff" d="M 344.71875 114.492188 L 200.359375 201.605469 C 192.476562 206.582031 182.523438 206.582031 174.226562 201.605469 L 30.28125 114.492188 C 21.15625 109.097656 21.15625 95.824219 30.28125 90.429688 L 174.640625 4.5625 C 182.523438 0 192.476562 0 200.359375 4.5625 L 344.71875 90.429688 C 353.84375 95.824219 353.84375 109.097656 344.71875 114.492188 Z M 344.71875 114.492188 " fill-opacity="1" fill-rule="nonzero"/><path fill="#008cff" d="M 344.71875 174.640625 L 306.96875 152.238281 L 200.359375 216.539062 C 192.476562 221.515625 182.523438 221.515625 174.226562 216.539062 L 68.03125 152.238281 L 30.28125 174.640625 C 21.15625 180.03125 21.15625 193.308594 30.28125 198.699219 L 174.640625 285.398438 C 182.523438 290.375 192.476562 290.375 200.773438 285.398438 L 345.132812 198.699219 C 353.84375 193.308594 353.84375 180.03125 344.71875 174.640625 Z M 344.71875 174.640625 " fill-opacity="1" fill-rule="nonzero"/><path fill="#008cff" d="M 344.71875 259.679688 L 306.96875 237.277344 L 200.359375 301.160156 C 192.476562 306.140625 182.523438 306.140625 174.226562 301.160156 L 68.03125 236.863281 L 30.28125 259.265625 C 21.15625 264.65625 21.15625 277.929688 30.28125 283.324219 L 174.640625 370.023438 C 182.523438 375 192.476562 375 200.773438 370.023438 L 345.132812 283.324219 C 353.84375 278.347656 353.84375 265.070312 344.71875 259.679688 Z M 344.71875 259.679688 " fill-opacity="1" fill-rule="nonzero"/></svg>