<svg xmlns="http://www.w3.org/2000/svg" xmlns:xlink="http://www.w3.org/1999/xlink" width="378" zoomAndPan="magnify" viewBox="0 0 283.5 72.749999" height="97" preserveAspectRatio="xMidYMid meet" version="1.0"><defs><g/><clipPath id="0eb3930163"><path d="M 0.234375 6.203125 L 53 6.203125 L 53 39 L 0.234375 39 Z M 0.234375 6.203125 " clip-rule="nonzero"/></clipPath><clipPath id="35120725ee"><path d="M 0.234375 30 L 53 30 L 53 53 L 0.234375 53 Z M 0.234375 30 " clip-rule="nonzero"/></clipPath><clipPath id="3bd8108b25"><path d="M 0.234375 43 L 53 43 L 53 66 L 0.234375 66 Z M 0.234375 43 " clip-rule="nonzero"/></clipPath></defs><g clip-path="url(#0eb3930163)"><path fill="#008cff" d="M 51.738281 24.414062 L 28.78125 38.269531 C 27.527344 39.058594 25.945312 39.058594 24.625 38.269531 L 1.730469 24.414062 C 0.277344 23.554688 0.277344 21.445312 1.730469 20.585938 L 24.691406 6.929688 C 25.945312 6.203125 27.527344 6.203125 28.78125 6.929688 L 51.738281 20.585938 C 53.191406 21.445312 53.191406 23.554688 51.738281 24.414062 Z M 51.738281 24.414062 " fill-opacity="1" fill-rule="nonzero"/></g><g clip-path="url(#35120725ee)"><path fill="#008cff" d="M 51.738281 33.980469 L 45.734375 30.417969 L 28.78125 40.644531 C 27.527344 41.433594 25.945312 41.433594 24.625 40.644531 L 7.734375 30.417969 L 1.730469 33.980469 C 0.277344 34.835938 0.277344 36.949219 1.730469 37.804688 L 24.691406 51.59375 C 25.945312 52.386719 27.527344 52.386719 28.847656 51.59375 L 51.804688 37.804688 C 53.191406 36.949219 53.191406 34.835938 51.738281 33.980469 Z M 51.738281 33.980469 " fill-opacity="1" fill-rule="nonzero"/></g><g clip-path="url(#3bd8108b25)"><path fill="#008cff" d="M 51.738281 47.503906 L 45.734375 43.941406 L 28.78125 54.101562 C 27.527344 54.894531 25.945312 54.894531 24.625 54.101562 L 7.734375 43.875 L 1.730469 47.4375 C 0.277344 48.296875 0.277344 50.40625 1.730469 51.265625 L 24.691406 65.054688 C 25.945312 65.847656 27.527344 65.847656 28.847656 65.054688 L 51.804688 51.265625 C 53.191406 50.472656 53.191406 48.363281 51.738281 47.503906 Z M 51.738281 47.503906 " fill-opacity="1" fill-rule="nonzero"/></g><g fill="#ffffff" fill-opacity="1"><g transform="translate(68.184048, 49.47996)"><g><path d="M 8.6875 -24.359375 L 0.234375 -24.359375 L 0.234375 -28.1875 L 21.125 -28.1875 L 21.125 -24.359375 L 12.71875 -24.359375 L 12.71875 0 L 8.6875 0 Z M 8.6875 -24.359375 "/></g></g></g><g fill="#ffffff" fill-opacity="1"><g transform="translate(87.276466, 49.47996)"><g><path d="M 6.859375 -18.890625 C 7.628906 -19.984375 8.535156 -20.773438 9.578125 -21.265625 C 10.628906 -21.753906 11.753906 -22 12.953125 -22 C 13.378906 -22 13.804688 -21.972656 14.234375 -21.921875 C 14.660156 -21.867188 15.082031 -21.789062 15.5 -21.6875 L 15.5 -18.25 C 14.863281 -18.4375 14.203125 -18.53125 13.515625 -18.53125 C 12.316406 -18.53125 11.210938 -18.226562 10.203125 -17.625 C 9.191406 -17.03125 8.378906 -16.222656 7.765625 -15.203125 C 7.160156 -14.179688 6.859375 -13.003906 6.859375 -11.671875 L 6.859375 0 L 2.984375 0 L 2.984375 -21.53125 L 6.859375 -21.53125 Z M 6.859375 -18.890625 "/></g></g></g><g fill="#ffffff" fill-opacity="1"><g transform="translate(104.176725, 49.47996)"><g><path d="M 18.890625 -2.828125 C 18.097656 -1.660156 17.113281 -0.84375 15.9375 -0.375 C 14.769531 0.0820312 13.484375 0.3125 12.078125 0.3125 C 9.898438 0.3125 8.117188 -0.109375 6.734375 -0.953125 C 5.347656 -1.804688 4.328125 -3.007812 3.671875 -4.5625 C 3.023438 -6.113281 2.703125 -7.914062 2.703125 -9.96875 L 2.703125 -21.765625 L 6.609375 -21.765625 L 6.609375 -9.96875 C 6.609375 -8.632812 6.757812 -7.445312 7.0625 -6.40625 C 7.375 -5.375 7.941406 -4.570312 8.765625 -4 C 9.585938 -3.4375 10.785156 -3.15625 12.359375 -3.15625 C 14.398438 -3.15625 15.960938 -3.796875 17.046875 -5.078125 C 18.140625 -6.367188 18.6875 -7.957031 18.6875 -9.84375 L 18.6875 -21.765625 L 22.59375 -21.765625 L 22.59375 0 L 18.890625 0 Z M 18.890625 -2.828125 "/></g></g></g><g fill="#ffffff" fill-opacity="1"><g transform="translate(130.005411, 49.47996)"><g><path d="M 24.15625 -11.71875 C 24.175781 -11.613281 24.1875 -11.503906 24.1875 -11.390625 C 24.1875 -11.285156 24.1875 -11.171875 24.1875 -11.046875 C 24.1875 -10.617188 24.148438 -10.21875 24.078125 -9.84375 L 5.8125 -9.84375 C 5.8125 -8.4375 6.191406 -7.226562 6.953125 -6.21875 C 7.710938 -5.207031 8.65625 -4.425781 9.78125 -3.875 C 10.914062 -3.332031 12.015625 -3.0625 13.078125 -3.0625 C 14.398438 -3.0625 15.640625 -3.351562 16.796875 -3.9375 C 17.953125 -4.53125 18.847656 -5.4375 19.484375 -6.65625 L 23.515625 -6.65625 C 22.984375 -5.09375 22.171875 -3.785156 21.078125 -2.734375 C 19.992188 -1.679688 18.753906 -0.894531 17.359375 -0.375 C 15.960938 0.144531 14.519531 0.40625 13.03125 0.40625 C 11.65625 0.40625 10.300781 0.171875 8.96875 -0.296875 C 7.632812 -0.765625 6.4375 -1.460938 5.375 -2.390625 C 4.3125 -3.316406 3.46875 -4.476562 2.84375 -5.875 C 2.21875 -7.269531 1.90625 -8.898438 1.90625 -10.765625 C 1.90625 -12.617188 2.21875 -14.238281 2.84375 -15.625 C 3.46875 -17.007812 4.3125 -18.164062 5.375 -19.09375 C 6.4375 -20.019531 7.632812 -20.710938 8.96875 -21.171875 C 10.300781 -21.640625 11.679688 -21.875 13.109375 -21.875 C 14.890625 -21.875 16.597656 -21.492188 18.234375 -20.734375 C 19.867188 -19.984375 21.226562 -18.859375 22.3125 -17.359375 C 23.40625 -15.859375 24.019531 -13.976562 24.15625 -11.71875 Z M 20.046875 -13.078125 C 19.804688 -14.378906 19.332031 -15.421875 18.625 -16.203125 C 17.925781 -16.984375 17.09375 -17.550781 16.125 -17.90625 C 15.15625 -18.269531 14.148438 -18.453125 13.109375 -18.453125 C 12.078125 -18.453125 11.0625 -18.269531 10.0625 -17.90625 C 9.0625 -17.550781 8.195312 -16.972656 7.46875 -16.171875 C 6.738281 -15.378906 6.242188 -14.347656 5.984375 -13.078125 Z M 20.046875 -13.078125 "/></g></g></g><g fill="#ffffff" fill-opacity="1"><g transform="translate(156.471837, 49.47996)"><g><path d="M 17.375 -20.6875 C 17.1875 -21.507812 16.800781 -22.179688 16.21875 -22.703125 C 15.632812 -23.222656 14.953125 -23.609375 14.171875 -23.859375 C 13.390625 -24.109375 12.597656 -24.234375 11.796875 -24.234375 C 10.835938 -24.234375 9.878906 -24.066406 8.921875 -23.734375 C 7.972656 -23.398438 7.203125 -22.863281 6.609375 -22.125 C 6.378906 -21.832031 6.207031 -21.492188 6.09375 -21.109375 C 5.988281 -20.722656 5.9375 -20.328125 5.9375 -19.921875 C 5.9375 -18.859375 6.25 -18.0625 6.875 -17.53125 C 7.5 -17 8.296875 -16.640625 9.265625 -16.453125 C 10.234375 -16.273438 11.238281 -16.128906 12.28125 -16.015625 C 13.238281 -15.910156 14.21875 -15.742188 15.21875 -15.515625 C 16.226562 -15.296875 17.191406 -14.972656 18.109375 -14.546875 C 19.023438 -14.117188 19.820312 -13.546875 20.5 -12.828125 C 21.1875 -12.117188 21.660156 -11.203125 21.921875 -10.078125 C 22.054688 -9.421875 22.125 -8.8125 22.125 -8.25 C 22.125 -6.894531 21.820312 -5.691406 21.21875 -4.640625 C 20.625 -3.585938 19.828125 -2.695312 18.828125 -1.96875 C 17.835938 -1.238281 16.722656 -0.6875 15.484375 -0.3125 C 14.242188 0.0507812 13.003906 0.234375 11.765625 0.234375 C 10.703125 0.234375 9.601562 0.078125 8.46875 -0.234375 C 7.34375 -0.554688 6.289062 -1.03125 5.3125 -1.65625 C 4.34375 -2.28125 3.53125 -3.0625 2.875 -4 C 2.226562 -4.945312 1.84375 -6.046875 1.71875 -7.296875 L 1.671875 -8.046875 L 5.734375 -8.125 L 5.78125 -7.53125 L 5.78125 -7.6875 C 5.882812 -6.84375 6.25 -6.117188 6.875 -5.515625 C 7.5 -4.921875 8.257812 -4.476562 9.15625 -4.1875 C 10.0625 -3.894531 10.941406 -3.75 11.796875 -3.75 C 12.804688 -3.75 13.789062 -3.925781 14.75 -4.28125 C 15.707031 -4.644531 16.5 -5.164062 17.125 -5.84375 C 17.75 -6.519531 18.0625 -7.335938 18.0625 -8.296875 C 18.0625 -8.585938 18.019531 -8.90625 17.9375 -9.25 C 17.78125 -9.96875 17.390625 -10.503906 16.765625 -10.859375 C 16.140625 -11.222656 15.382812 -11.484375 14.5 -11.640625 C 13.625 -11.796875 12.722656 -11.914062 11.796875 -12 C 10.710938 -12.101562 9.609375 -12.265625 8.484375 -12.484375 C 7.367188 -12.710938 6.332031 -13.078125 5.375 -13.578125 C 4.425781 -14.085938 3.640625 -14.785156 3.015625 -15.671875 C 2.390625 -16.566406 2.019531 -17.75 1.90625 -19.21875 L 1.90625 -19.171875 C 1.90625 -19.304688 1.898438 -19.425781 1.890625 -19.53125 C 1.878906 -19.632812 1.875 -19.738281 1.875 -19.84375 C 1.875 -21.570312 2.390625 -23.113281 3.421875 -24.46875 C 4.359375 -25.695312 5.597656 -26.625 7.140625 -27.25 C 8.679688 -27.875 10.257812 -28.1875 11.875 -28.1875 C 13.3125 -28.1875 14.710938 -27.925781 16.078125 -27.40625 C 17.453125 -26.882812 18.613281 -26.082031 19.5625 -25 C 20.519531 -23.925781 21.117188 -22.539062 21.359375 -20.84375 Z M 17.375 -20.6875 "/></g></g></g><g fill="#ffffff" fill-opacity="1"><g transform="translate(179.510349, 49.47996)"><g><path d="M 8.09375 -21.5625 L 12.828125 -21.5625 L 12.828125 -18.453125 L 8.09375 -18.453125 L 8.09375 -6.296875 C 8.09375 -5.023438 8.382812 -4.179688 8.96875 -3.765625 C 9.550781 -3.359375 10.332031 -3.15625 11.3125 -3.15625 C 11.550781 -3.15625 11.8125 -3.160156 12.09375 -3.171875 C 12.375 -3.179688 12.660156 -3.203125 12.953125 -3.234375 L 12.953125 0.046875 C 12.628906 0.0664062 12.320312 0.0820312 12.03125 0.09375 C 11.738281 0.113281 11.445312 0.125 11.15625 0.125 C 9.75 0.125 8.519531 -0.0664062 7.46875 -0.453125 C 6.425781 -0.835938 5.617188 -1.492188 5.046875 -2.421875 C 4.472656 -3.359375 4.1875 -4.664062 4.1875 -6.34375 L 4.1875 -18.453125 L 0.953125 -18.453125 L 0.953125 -21.5625 L 4.1875 -21.5625 L 4.1875 -25.59375 L 8.09375 -26.34375 Z M 8.09375 -21.5625 "/></g></g></g><g fill="#ffffff" fill-opacity="1"><g transform="translate(193.381318, 49.47996)"><g><path d="M 25.390625 0 L 21.484375 0 L 21.484375 -2.90625 C 20.984375 -2.132812 20.289062 -1.507812 19.40625 -1.03125 C 18.53125 -0.550781 17.597656 -0.207031 16.609375 0 C 15.628906 0.207031 14.691406 0.328125 13.796875 0.359375 C 11.296875 0.359375 9.179688 -0.164062 7.453125 -1.21875 C 5.722656 -2.269531 4.410156 -3.648438 3.515625 -5.359375 C 2.628906 -7.078125 2.1875 -8.914062 2.1875 -10.875 C 2.1875 -12.820312 2.640625 -14.628906 3.546875 -16.296875 C 4.453125 -17.972656 5.765625 -19.328125 7.484375 -20.359375 C 9.210938 -21.398438 11.289062 -21.921875 13.71875 -21.921875 C 14.613281 -21.921875 15.539062 -21.832031 16.5 -21.65625 C 17.457031 -21.488281 18.375 -21.171875 19.25 -20.703125 C 20.125 -20.242188 20.882812 -19.570312 21.53125 -18.6875 L 21.484375 -21.5625 L 25.390625 -21.5625 Z M 21.484375 -10.796875 C 21.484375 -12.523438 21.085938 -13.953125 20.296875 -15.078125 C 19.515625 -16.210938 18.523438 -17.066406 17.328125 -17.640625 C 16.140625 -18.210938 14.9375 -18.5 13.71875 -18.5 C 12.144531 -18.5 10.785156 -18.160156 9.640625 -17.484375 C 8.503906 -16.804688 7.628906 -15.894531 7.015625 -14.75 C 6.398438 -13.601562 6.09375 -12.3125 6.09375 -10.875 C 6.09375 -9.519531 6.398438 -8.25 7.015625 -7.0625 C 7.628906 -5.882812 8.5 -4.929688 9.625 -4.203125 C 10.75 -3.472656 12.113281 -3.109375 13.71875 -3.109375 C 14.90625 -3.109375 16.097656 -3.382812 17.296875 -3.9375 C 18.492188 -4.5 19.488281 -5.351562 20.28125 -6.5 C 21.082031 -7.644531 21.484375 -9.078125 21.484375 -10.796875 Z M 21.484375 -10.796875 "/></g></g></g><g fill="#ffffff" fill-opacity="1"><g transform="translate(221.521823, 49.47996)"><g><path d="M 24.109375 -8.21875 C 23.765625 -6.300781 23.035156 -4.707031 21.921875 -3.4375 C 20.804688 -2.175781 19.476562 -1.234375 17.9375 -0.609375 C 16.394531 0.00390625 14.800781 0.3125 13.15625 0.3125 C 11.769531 0.3125 10.410156 0.0820312 9.078125 -0.375 C 7.753906 -0.84375 6.5625 -1.539062 5.5 -2.46875 C 4.4375 -3.394531 3.59375 -4.550781 2.96875 -5.9375 C 2.34375 -7.320312 2.03125 -8.941406 2.03125 -10.796875 C 2.03125 -12.660156 2.34375 -14.289062 2.96875 -15.6875 C 3.59375 -17.082031 4.441406 -18.238281 5.515625 -19.15625 C 6.597656 -20.070312 7.800781 -20.757812 9.125 -21.21875 C 10.457031 -21.6875 11.828125 -21.921875 13.234375 -21.921875 C 14.878906 -21.921875 16.457031 -21.609375 17.96875 -20.984375 C 19.488281 -20.359375 20.804688 -19.40625 21.921875 -18.125 C 23.035156 -16.851562 23.765625 -15.265625 24.109375 -13.359375 L 20.09375 -13.359375 C 19.613281 -15.078125 18.726562 -16.351562 17.4375 -17.1875 C 16.144531 -18.03125 14.753906 -18.453125 13.265625 -18.453125 C 12.078125 -18.453125 10.914062 -18.171875 9.78125 -17.609375 C 8.65625 -17.054688 7.734375 -16.210938 7.015625 -15.078125 C 6.296875 -13.953125 5.9375 -12.523438 5.9375 -10.796875 C 5.9375 -9.078125 6.296875 -7.644531 7.015625 -6.5 C 7.734375 -5.351562 8.65625 -4.5 9.78125 -3.9375 C 10.914062 -3.382812 12.09375 -3.109375 13.3125 -3.109375 C 14.800781 -3.109375 16.179688 -3.53125 17.453125 -4.375 C 18.734375 -5.226562 19.613281 -6.507812 20.09375 -8.21875 Z M 24.109375 -8.21875 "/></g></g></g><g fill="#ffffff" fill-opacity="1"><g transform="translate(247.78896, 49.47996)"><g><path d="M 10.40625 -15.1875 L 16.375 -21.5625 L 21.078125 -21.5625 L 12.390625 -12.28125 L 21.640625 -0.359375 L 21.640625 0 L 17.140625 0 L 9.890625 -9.5625 L 7.09375 -6.578125 L 7.09375 0 L 3.1875 0 L 3.1875 -27.90625 L 7.09375 -27.90625 L 7.09375 -11.234375 Z M 10.40625 -15.1875 "/></g></g></g></svg>